<?xml version="1.0" standalone="no"?>
<!DOCTYPE svg PUBLIC "-//W3C//DTD SVG 20010904//EN"
 "http://www.w3.org/TR/2001/REC-SVG-20010904/DTD/svg10.dtd">
<svg version="1.0" xmlns="http://www.w3.org/2000/svg"
 width="1920.000000pt" height="1649.000000pt" viewBox="0 0 1920.000000 1649.000000"
 preserveAspectRatio="xMidYMid meet">
<metadata>
Created by potrace 1.16, written by Peter Selinger 2001-2019
</metadata>
<g transform="translate(0.000000,1649.000000) scale(0.100000,-0.100000)"
fill="#000000" stroke="none">
<path d="M0 8245 l0 -8245 240 0 c215 0 240 2 240 16 0 74 356 917 559 1322
37 75 83 170 100 210 17 39 73 147 122 240 128 235 179 338 414 837 530 1125
548 1167 651 1535 64 229 92 376 129 675 25 201 30 222 53 247 19 21 23 33 17
55 -3 15 -9 46 -12 68 -6 49 -13 57 -81 103 -125 82 -278 264 -344 407 -150
328 -149 326 -155 560 -4 157 -1 213 15 325 26 174 71 375 117 520 89 281 124
456 131 655 6 138 5 142 -29 260 -20 66 -43 163 -52 215 -38 223 -135 429
-302 644 -29 37 -53 75 -53 83 0 8 27 45 60 84 33 38 60 76 60 84 0 7 -23 40
-51 72 -28 32 -70 84 -92 116 -58 79 -71 80 -165 18 -43 -28 -81 -51 -85 -51
-3 0 -4 23 -2 51 6 65 40 125 102 176 71 59 110 76 188 81 122 7 249 -52 370
-173 114 -114 163 -216 230 -482 38 -148 55 -185 119 -262 33 -40 56 -85 86
-165 23 -61 49 -120 58 -130 9 -10 42 -30 72 -43 108 -48 225 -126 292 -195
129 -132 206 -340 214 -582 5 -146 10 -163 39 -142 18 13 20 27 20 168 0 155
-2 171 -53 352 -23 85 -110 218 -203 312 l-81 81 22 74 c14 48 52 124 106 216
85 144 346 658 379 749 10 27 61 144 113 259 52 116 118 271 147 345 141 361
460 911 682 1172 107 127 370 350 504 429 198 115 335 129 385 37 29 -52 10
-185 -43 -296 -41 -86 -194 -282 -289 -369 -122 -111 -159 -130 -269 -138
-166 -11 -196 -16 -216 -36 -16 -16 -17 -23 -8 -40 10 -20 18 -21 100 -17 79
4 89 2 89 -13 0 -9 -34 -100 -76 -201 -42 -100 -94 -228 -116 -283 -51 -129
-126 -279 -176 -352 -22 -32 -83 -99 -136 -149 l-96 -90 0 -52 c0 -67 -93
-521 -121 -590 -15 -37 -19 -63 -15 -87 9 -46 19 -50 55 -19 22 18 36 45 51
92 23 80 204 460 251 529 18 26 52 72 76 101 24 30 63 93 88 140 41 80 164
247 318 432 35 41 95 118 134 170 66 88 350 379 521 534 252 227 397 331 547
392 189 78 300 67 341 -32 20 -48 17 -91 -10 -170 -57 -167 -121 -262 -303
-450 -111 -116 -218 -164 -363 -164 -81 0 -108 14 -138 68 -24 42 -47 53 -70
30 -21 -21 -13 -44 33 -104 25 -32 48 -69 52 -81 9 -39 -36 -138 -149 -327
-117 -195 -184 -274 -276 -320 -89 -45 -84 -35 -162 -346 -56 -222 -91 -335
-157 -512 -94 -250 -99 -286 -43 -266 20 6 47 33 78 77 52 73 236 280 495 558
293 314 547 528 897 754 244 158 451 249 639 281 62 11 74 10 111 -7 23 -10
53 -32 67 -49 23 -28 25 -36 21 -101 -9 -129 -43 -178 -251 -362 -132 -116
-229 -183 -318 -219 -103 -42 -117 -37 -215 79 -62 74 -95 35 -46 -54 18 -32
32 -64 32 -72 0 -21 -132 -229 -205 -323 -73 -93 -129 -136 -306 -238 -155
-88 -189 -87 -222 9 -17 49 -37 63 -65 44 l-20 -14 24 -60 c13 -33 37 -72 52
-88 l27 -28 -23 -37 c-12 -20 -52 -95 -88 -167 -37 -71 -102 -190 -146 -263
-91 -152 -79 -149 -174 -43 -47 51 -61 61 -89 61 -34 0 -75 -36 -75 -66 0 -17
34 -36 52 -29 15 6 204 -181 262 -258 20 -27 44 -78 56 -117 11 -38 25 -72 31
-76 17 -10 36 17 44 62 6 41 -12 86 -91 222 l-19 33 27 24 c24 21 403 239 853
492 335 189 496 258 716 307 142 32 246 34 306 6 47 -21 83 -70 83 -112 0 -32
-56 -102 -114 -142 -51 -35 -335 -172 -376 -181 -18 -4 -49 0 -80 10 -68 23
-105 18 -105 -15 0 -19 9 -29 37 -43 l38 -18 -211 -152 c-263 -189 -260 -187
-285 -187 -25 0 -49 25 -57 61 -4 14 -18 31 -32 37 -21 10 -26 9 -35 -8 -8
-15 -3 -35 27 -94 32 -66 35 -77 22 -92 -8 -9 -72 -68 -144 -129 -71 -62 -145
-129 -164 -149 l-35 -36 22 -20 c12 -12 22 -27 22 -35 0 -38 -209 -500 -345
-762 -87 -168 -193 -402 -297 -653 -84 -203 -379 -754 -471 -879 -58 -79 -355
-389 -418 -438 -106 -80 -259 -167 -426 -239 -23 -9 -40 -29 -58 -64 -14 -28
-41 -73 -60 -98 -37 -52 -50 -82 -135 -317 -52 -144 -117 -299 -355 -835 -159
-360 -288 -756 -454 -1395 -126 -484 -152 -622 -196 -1045 -9 -85 -32 -235
-51 -332 -29 -155 -50 -377 -54 -580 0 -5 3773 -8 8385 -8 l8385 0 0 925 0
926 -34 -7 c-40 -7 -291 30 -581 86 -110 21 -255 46 -322 55 -67 8 -171 24
-230 35 -134 25 -267 47 -400 65 -59 9 -115 23 -135 34 -40 24 -173 50 -453
91 -115 16 -232 36 -260 45 -27 8 -99 24 -160 35 -60 12 -212 56 -338 98
l-227 76 33 17 c18 10 107 40 196 67 173 53 215 77 195 110 -6 9 -26 18 -45
20 -42 3 -248 -63 -366 -118 -49 -23 -116 -45 -156 -52 -41 -7 -83 -21 -105
-35 -31 -21 -48 -25 -131 -26 -88 -2 -100 0 -143 26 -40 23 -53 39 -88 110
-75 154 -94 307 -51 417 11 30 21 65 21 77 0 11 -20 47 -43 80 -68 91 -161
336 -204 538 -14 66 -36 170 -49 230 -13 61 -23 128 -24 150 0 22 -12 112 -25
200 -35 216 -83 721 -95 990 -6 121 -19 371 -29 555 -11 184 -23 450 -26 590
-6 277 -27 482 -75 750 -31 170 -45 280 -80 605 -35 318 -163 1167 -200 1320
-31 128 -188 572 -237 670 -60 117 -155 235 -370 457 -90 92 -163 172 -163
177 0 5 12 12 28 15 163 31 246 52 278 70 48 26 55 57 19 76 -23 12 -31 11
-70 -8 -68 -33 -152 -51 -292 -63 -197 -16 -358 3 -604 71 -123 34 -147 45
-231 101 -62 42 -86 46 -179 29 -30 -5 -139 -21 -244 -34 -170 -22 -209 -31
-374 -85 -118 -39 -220 -80 -285 -115 -150 -81 -445 -208 -466 -201 -19 6
-109 143 -159 243 -17 34 -40 98 -51 143 -10 44 -24 87 -31 95 -20 24 -59 16
-138 -30 -83 -47 -121 -61 -193 -72 -86 -12 -87 -15 -49 -140 37 -122 82 -216
152 -320 l48 -71 -42 -6 c-113 -16 -273 32 -322 97 -79 103 -93 232 -38 349
81 172 208 308 430 462 12 8 19 22 17 32 -3 14 28 41 130 113 185 130 269 177
477 265 286 122 393 155 725 224 105 22 210 49 233 60 53 28 93 83 131 185 44
118 60 146 102 173 34 23 36 27 23 47 -15 24 -99 383 -115 491 -5 39 -10 142
-10 230 0 258 -32 533 -86 735 -42 160 -124 403 -150 442 -13 20 -92 90 -176
155 -84 65 -175 140 -202 168 -85 88 -290 348 -318 404 -39 75 -37 84 12 76
35 -6 40 -4 40 12 0 26 -34 61 -67 69 -15 4 -71 -4 -138 -20 -199 -46 -461
-29 -721 50 -103 30 -142 30 -202 -1 -26 -13 -119 -40 -207 -60 -88 -20 -205
-48 -260 -61 -55 -14 -221 -46 -370 -70 -207 -35 -295 -45 -380 -45 -225 0
-355 70 -355 192 0 35 11 61 55 134 93 154 108 165 181 131 66 -31 109 -76
129 -135 27 -82 30 -82 163 -15 64 32 127 67 140 78 31 27 29 73 -12 206 -18
61 -30 112 -27 114 12 7 427 125 527 150 56 14 229 46 385 71 156 25 372 62
479 83 186 35 205 37 410 37 333 0 422 -26 577 -166 48 -44 148 -126 222 -181
115 -87 572 -456 826 -668 44 -37 143 -112 219 -168 181 -132 413 -327 420
-355 3 -12 26 -35 51 -51 26 -16 138 -126 250 -245 396 -421 491 -550 708
-956 169 -316 245 -521 302 -810 62 -316 76 -406 87 -577 9 -147 8 -174 -6
-220 l-17 -53 60 -150 c102 -256 294 -881 371 -1207 28 -117 89 -352 135 -523
46 -170 120 -449 164 -620 44 -170 105 -393 136 -495 76 -253 364 -1111 533
-1590 205 -581 298 -887 447 -1470 102 -399 143 -525 177 -536 24 -7 55 20 59
51 3 25 -9 65 -21 65 -4 0 -13 14 -19 30 l-10 30 70 0 c146 0 626 -56 859
-100 207 -39 248 -45 508 -74 231 -27 329 -47 463 -96 l79 -29 0 5970 0 5969
-9600 0 -9600 0 0 -8245z m9694 7053 c8 -13 23 -51 32 -85 24 -89 16 -103 -86
-142 l-80 -31 -61 64 c-33 36 -69 76 -80 90 l-20 25 42 28 c50 33 162 72 206
73 23 0 37 -7 47 -22z m536 -712 c129 -19 361 -49 515 -66 154 -17 307 -34
340 -38 l60 -7 -2 -87 c-2 -93 -43 -282 -66 -305 -9 -10 -102 -21 -298 -38
-395 -34 -408 -36 -442 -70 -23 -22 -22 -28 11 -66 l27 -33 7 -465 c5 -349 4
-472 -5 -491 -15 -32 -59 -53 -177 -85 -204 -55 -402 -41 -637 47 l-81 30 -6
111 c-3 62 -8 285 -12 497 -6 402 -9 425 -52 463 -22 20 -70 28 -292 47 -69 6
-170 16 -225 21 -135 13 -398 12 -496 -1 -101 -14 -164 -33 -414 -127 -238
-90 -242 -92 -319 -156 l-60 -50 -19 44 c-40 95 -87 284 -79 322 5 25 189 115
350 171 217 75 397 120 880 220 425 88 470 95 642 106 101 6 227 17 280 25 52
8 111 17 130 19 72 9 211 -4 440 -38z m237 -863 c-3 -10 -5 -2 -5 17 0 19 2
27 5 18 2 -10 2 -26 0 -35z m2061 -167 c13 -37 33 -125 44 -196 l21 -127 -57
-87 c-164 -253 -400 -395 -615 -370 -41 4 -67 2 -95 -10 -37 -15 -38 -17 -24
-38 22 -34 58 -48 101 -41 36 5 37 5 37 -25 0 -17 -7 -86 -16 -153 -25 -191
-79 -354 -133 -403 -32 -29 -26 -65 28 -176 56 -113 73 -181 69 -266 l-3 -58
-212 -89 c-118 -50 -219 -87 -227 -84 -21 8 -150 204 -189 285 -28 61 -29 68
-23 150 19 252 18 344 -4 472 -12 69 -24 179 -27 245 l-5 120 39 76 c22 42 65
110 96 151 66 88 292 310 392 386 40 30 170 103 300 168 220 111 234 116 325
129 153 21 150 22 178 -59z m-3141 -259 c-2 -23 -3 -1 -3 48 0 50 1 68 3 42 2
-26 2 -67 0 -90z m2233 20 c0 -2 -12 -14 -27 -28 l-28 -24 24 28 c23 25 31 32
31 24z m-4434 -74 c-3 -10 -14 -56 -26 -102 -24 -93 -111 -324 -159 -419 -43
-86 -102 -113 -170 -77 -42 21 -55 62 -42 125 20 93 38 119 250 353 115 127
160 164 147 120z m5429 -420 c7 -277 5 -284 -72 -353 -48 -42 -117 -70 -172
-70 -41 0 -109 29 -130 53 -8 11 -28 17 -54 17 l-40 0 6 -37 c4 -21 14 -42 23
-48 73 -45 93 -94 74 -187 -6 -32 -20 -77 -30 -101 -27 -59 -25 -78 16 -131
57 -75 102 -202 81 -230 -7 -10 -68 -30 -147 -50 -74 -19 -142 -37 -151 -40
-13 -6 -18 7 -28 74 -14 93 -38 166 -75 230 -34 59 -33 106 4 207 34 96 72
237 109 418 l27 130 85 31 c177 64 306 152 405 275 26 33 51 58 55 57 4 -2 11
-112 14 -245z m-3228 110 c-2 -16 -4 -3 -4 27 0 30 2 43 4 28 2 -16 2 -40 0
-55z m-3127 -152 c0 -37 -71 -265 -124 -400 -98 -248 -135 -309 -203 -332 -42
-13 -90 1 -124 37 -20 21 -24 36 -24 88 0 93 41 167 182 328 125 143 273 298
285 298 5 0 8 -9 8 -19z m3798 -78 l62 -6 0 -441 0 -442 -54 -33 c-111 -67
-218 -77 -314 -29 l-47 23 -7 85 c-3 47 -6 260 -7 474 l-1 389 153 -7 c83 -4
180 -9 215 -13z m2621 -390 c48 -186 49 -194 12 -249 -16 -25 -44 -90 -61
-145 -34 -110 -54 -133 -143 -162 l-48 -16 -20 47 c-12 26 -39 92 -60 146
l-40 99 20 125 c11 68 26 131 33 139 10 13 252 141 269 142 3 1 20 -56 38
-126z m-1522 -190 c-2 -16 -4 -5 -4 22 0 28 2 40 4 28 2 -13 2 -35 0 -50z
m-1425 -429 c100 -32 122 -35 193 -32 61 4 92 11 132 31 63 33 142 35 313 12
198 -28 374 -81 449 -135 63 -46 51 -78 -39 -109 -19 -6 -174 -25 -345 -41
l-310 -30 -395 30 c-319 24 -416 35 -505 56 -129 31 -162 46 -177 80 -16 34
-1 46 102 79 329 108 403 116 582 59z m-567 -299 c44 -12 121 -28 170 -34 221
-28 1021 -42 1195 -21 47 6 141 24 208 41 69 18 127 27 132 23 13 -13 24 -241
15 -320 l-7 -69 -143 -140 c-78 -77 -157 -161 -174 -187 -145 -217 -144 -448
1 -584 27 -25 68 -54 93 -65 50 -22 158 -38 257 -39 73 0 88 -11 88 -65 0 -39
-39 -68 -143 -108 -129 -49 -203 -63 -428 -83 -175 -16 -223 -17 -430 -6 -497
26 -780 78 -903 166 -34 24 -67 50 -73 58 -7 9 -5 202 8 663 10 358 18 685 18
729 1 70 3 77 19 71 9 -3 53 -17 97 -30z m-208 -17 c-3 -7 -5 -2 -5 12 0 14 2
19 5 13 2 -7 2 -19 0 -25z m2148 -815 c40 -115 97 -229 149 -302 25 -36 46
-68 46 -71 0 -9 -125 -66 -162 -75 -70 -17 -160 56 -227 184 -43 84 -89 223
-75 228 5 2 52 28 104 57 52 30 105 54 116 55 18 1 26 -12 49 -76z m-5075 34
c0 -2 -10 -12 -22 -23 l-23 -19 19 23 c18 21 26 27 26 19z m2907 -489 c-3 -8
-6 -5 -6 6 -1 11 2 17 5 13 3 -3 4 -12 1 -19z m361 -352 c163 -41 322 -80 352
-86 30 -7 63 -17 73 -22 16 -8 17 -85 17 -1388 l0 -1380 -31 0 c-62 0 -330
-22 -504 -41 -368 -40 -653 -98 -906 -185 -192 -65 -317 -133 -410 -221 l-76
-73 -6 83 c-6 92 -41 974 -59 1484 -21 617 27 975 177 1315 66 151 93 185 231
299 138 114 191 146 305 183 60 19 301 71 459 99 58 10 94 4 378 -67z m1972
39 c226 -50 408 -102 449 -127 48 -29 225 -159 278 -203 81 -68 225 -389 272
-607 44 -204 56 -377 54 -773 -3 -456 -42 -1510 -59 -1592 -4 -22 -5 -22 -57
11 -322 206 -943 338 -1767 376 -118 5 -225 10 -237 10 l-23 0 0 1370 0 1370
114 0 c62 0 181 9 262 20 222 29 347 69 416 129 70 61 91 62 298 16z m-1170
-2100 l0 -1945 -140 0 -140 0 0 1945 0 1945 140 0 140 0 0 -1945z m-4670 1792
c0 -2 -17 -19 -37 -38 l-38 -34 34 38 c33 34 41 42 41 34z m-3717 -254 c55
-73 62 -93 43 -137 -19 -45 -56 -57 -94 -29 -24 18 -122 149 -122 162 1 15 78
60 102 61 21 0 36 -12 71 -57z m3357 -117 c0 -2 -8 -10 -17 -17 -16 -13 -17
-12 -4 4 13 16 21 21 21 13z m1090 -1109 c0 -2 -12 -14 -27 -28 l-28 -24 24
28 c23 25 31 32 31 24z m4515 -1197 c388 -28 755 -88 1041 -170 120 -35 399
-151 470 -196 65 -42 78 -72 70 -161 -11 -104 -17 -113 -114 -170 -159 -93
-277 -141 -485 -197 -284 -77 -768 -144 -1167 -161 -74 -3 -174 -8 -222 -11
l-88 -6 0 548 0 547 178 -7 c97 -3 240 -11 317 -16z m-935 -526 l0 -535 -82 6
c-392 29 -530 44 -751 81 -429 71 -749 174 -903 290 -68 52 -134 130 -134 158
0 30 44 90 103 143 187 164 717 306 1367 367 210 20 240 22 328 24 l72 2 0
-536z m5127 174 c-3 -8 -6 -5 -6 6 -1 11 2 17 5 13 3 -3 4 -12 1 -19z m-6919
-361 c182 -135 377 -208 767 -287 253 -51 594 -93 850 -105 72 -3 140 -8 153
-11 l22 -4 0 -1515 0 -1515 220 0 220 0 0 1513 0 1514 201 7 c818 27 1530 174
1827 378 l42 29 0 -25 c0 -39 -28 -349 -65 -731 -19 -192 -41 -438 -50 -545
-26 -328 -100 -995 -135 -1230 -11 -69 -28 -208 -40 -310 -27 -237 -35 -292
-65 -420 -14 -58 -33 -143 -44 -190 -10 -47 -25 -100 -32 -118 -13 -31 -12
-35 9 -52 l22 -18 -49 -36 c-87 -64 -232 -126 -384 -163 -78 -19 -178 -45
-222 -58 -95 -27 -308 -70 -420 -85 -400 -51 -799 -72 -960 -50 -38 5 -143 16
-232 24 -404 37 -872 131 -1125 226 -56 21 -154 78 -203 118 -27 21 -27 23
-10 41 16 19 16 23 -4 83 -44 133 -119 565 -146 838 -3 36 -21 178 -41 315
-37 270 -144 1309 -169 1650 -9 116 -27 340 -40 500 -14 159 -25 303 -25 320
l1 30 20 -27 c10 -14 59 -55 107 -91z m2152 -1887 l0 -1480 -63 0 c-35 0 -98
3 -140 6 l-77 7 0 1473 0 1474 140 0 140 0 0 -1480z m4827 918 c-3 -8 -6 -5
-6 6 -1 11 2 17 5 13 3 -3 4 -12 1 -19z m-6712 -2768 c10 -11 16 -20 13 -20
-3 0 -13 9 -23 20 -10 11 -16 20 -13 20 3 0 13 -9 23 -20z m10882 -576 c-3 -3
-12 -4 -19 -1 -8 3 -5 6 6 6 11 1 17 -2 13 -5z"/>
<path d="M3210 7284 c-12 -31 -13 -104 -1 -122 5 -8 17 -12 27 -10 15 2 21 16
28 65 5 34 6 69 3 77 -10 26 -46 19 -57 -10z"/>
</g>
</svg>
