<?xml version="1.0" standalone="no"?>
<!DOCTYPE svg PUBLIC "-//W3C//DTD SVG 20010904//EN"
 "http://www.w3.org/TR/2001/REC-SVG-20010904/DTD/svg10.dtd">
<svg version="1.0" xmlns="http://www.w3.org/2000/svg"
 width="1280.000000pt" height="905.000000pt" viewBox="0 0 1280.000000 905.000000"
 preserveAspectRatio="xMidYMid meet">
<metadata>
Created by potrace 1.16, written by Peter Selinger 2001-2019
</metadata>
<g transform="translate(0.000000,905.000000) scale(0.100000,-0.100000)"
fill="#000000" stroke="none">
<path d="M6237 6603 c18 -2 50 -2 70 0 21 2 7 4 -32 4 -38 0 -55 -2 -38 -4z"/>
<path d="M6143 6593 c9 -2 23 -2 30 0 6 3 -1 5 -18 5 -16 0 -22 -2 -12 -5z"/>
<path d="M6068 6583 c6 -2 18 -2 25 0 6 3 1 5 -13 5 -14 0 -19 -2 -12 -5z"/>
<path d="M6018 6573 c7 -3 16 -2 19 1 4 3 -2 6 -13 5 -11 0 -14 -3 -6 -6z"/>
<path d="M5958 6563 c6 -2 18 -2 25 0 6 3 1 5 -13 5 -14 0 -19 -2 -12 -5z"/>
<path d="M5878 6543 c7 -3 16 -2 19 1 4 3 -2 6 -13 5 -11 0 -14 -3 -6 -6z"/>
<path d="M5138 6143 c6 -2 18 -2 25 0 6 3 1 5 -13 5 -14 0 -19 -2 -12 -5z"/>
<path d="M5915 4770 c-13 -6 -15 -9 -5 -9 8 0 22 4 30 9 18 12 2 12 -25 0z"/>
<path d="M5855 4750 c-13 -6 -15 -9 -5 -9 8 0 22 4 30 9 18 12 2 12 -25 0z"/>
<path d="M5795 4730 c-13 -6 -15 -9 -5 -9 8 0 22 4 30 9 18 12 2 12 -25 0z"/>
<path d="M5718 4703 c7 -3 16 -2 19 1 4 3 -2 6 -13 5 -11 0 -14 -3 -6 -6z"/>
<path d="M5648 4683 c7 -3 16 -2 19 1 4 3 -2 6 -13 5 -11 0 -14 -3 -6 -6z"/>
<path d="M5575 4661 c-22 -11 -35 -19 -30 -19 14 -1 93 36 80 37 -5 0 -28 -8
-50 -18z"/>
<path d="M5478 4612 c-27 -15 -80 -58 -119 -97 -58 -57 -80 -89 -119 -170 -44
-90 -76 -191 -94 -297 -4 -21 -11 -38 -15 -38 -16 0 -236 59 -281 75 -124 44
-268 130 -381 226 l-84 72 65 -67 c144 -150 374 -271 676 -359 l52 -15 7 101
c8 122 18 170 52 257 51 130 158 262 252 309 22 12 41 24 41 26 0 7 -2 7 -52
-23z"/>
<path d="M4343 4495 c0 -22 2 -30 4 -17 2 12 2 30 0 40 -3 9 -5 -1 -4 -23z"/>
<path d="M4360 4420 c12 -16 24 -30 26 -30 3 0 -4 14 -16 30 -12 17 -24 30
-26 30 -3 0 4 -13 16 -30z"/>
<path d="M8325 4314 c-137 -126 -348 -225 -607 -284 -91 -21 -98 -24 -98 -47
0 -22 3 -24 33 -18 146 30 401 139 536 230 63 42 215 174 201 174 -3 0 -32
-25 -65 -55z"/>
<path d="M4382 4150 c0 -14 2 -19 5 -12 2 6 2 18 0 25 -3 6 -5 1 -5 -13z"/>
<path d="M4391 4094 c0 -11 3 -14 6 -6 3 7 2 16 -1 19 -3 4 -6 -2 -5 -13z"/>
<path d="M4401 4054 c0 -11 3 -14 6 -6 3 7 2 16 -1 19 -3 4 -6 -2 -5 -13z"/>
<path d="M5135 3743 c12 -125 26 -212 51 -304 13 -51 23 -93 21 -95 -6 -6
-230 53 -287 76 -98 39 -224 109 -290 161 l-65 52 45 -47 c153 -160 372 -260
658 -300 27 -4 27 -4 2 66 -24 70 -67 279 -76 375 -5 61 -9 72 -28 77 -37 10
-38 8 -31 -61z"/>
<path d="M4510 3735 c0 -5 5 -17 10 -25 5 -8 10 -10 10 -5 0 6 -5 17 -10 25
-5 8 -10 11 -10 5z"/>
<path d="M4540 3666 c0 -2 8 -10 18 -17 15 -13 16 -12 3 4 -13 16 -21 21 -21
13z"/>
<path d="M8164 3579 c-120 -95 -392 -201 -581 -225 -40 -5 -54 -11 -59 -26 -3
-11 -3 -22 0 -25 9 -9 146 15 240 42 145 42 290 123 411 229 50 44 42 47 -11
5z"/>
<path d="M4806 3261 c-3 -5 2 -15 12 -22 16 -13 16 -13 2 5 -14 18 -13 19 3
13 41 -16 50 -17 27 -3 -29 18 -37 19 -44 7z"/>
<path d="M4890 3155 c30 -30 57 -55 59 -55 3 0 -19 25 -49 55 -30 30 -57 55
-59 55 -3 0 19 -25 49 -55z"/>
<path d="M5290 3134 c9 -3 25 -21 35 -41 88 -164 277 -354 458 -460 57 -34 74
-49 65 -56 -9 -6 -7 -7 6 -3 10 4 37 -2 60 -13 44 -20 94 -37 86 -28 -3 3 -46
32 -95 65 -159 104 -338 278 -483 470 -54 72 -55 72 -101 71 -25 -1 -39 -3
-31 -5z"/>
<path d="M5300 2816 c0 -3 9 -10 20 -16 11 -6 20 -8 20 -6 0 3 -9 10 -20 16
-11 6 -20 8 -20 6z"/>
</g>
</svg>
